<svg width="625" height="615" viewBox="0 0 625 615" fill="none" xmlns="http://www.w3.org/2000/svg">
<g clip-path="url(#clip0_733_2)">
<path d="M454.81 114.114C454.734 137.957 453.121 161.769 449.98 185.404C449.87 186.234 449.75 187.064 449.64 187.894H226.36C225.7 187.074 225.05 186.244 224.42 185.404C222.32 182.624 220.35 179.764 218.54 176.804C209.84 162.544 205.8 145.814 209.69 134.234L209.76 134.054C210.599 131.519 211.931 129.174 213.68 127.154C222.64 116.954 240.88 118.544 257.47 126.644C242.54 110.484 230.61 90.0542 229.61 71.7642C228.63 53.9242 237.89 41.1242 247.95 30.2342C248.28 29.8742 248.61 29.5242 248.94 29.1742C249.1 28.9942 249.27 28.8242 249.43 28.6442C257.28 20.3442 266.44 12.1542 279.77 13.0642C294.39 14.0642 310.66 26.2142 322.1 40.4142C333.54 54.6042 341.18 70.7542 348.92 86.5142C356.67 102.264 365.05 118.414 377.42 131.844C360.65 110.874 347.09 86.9842 342 63.7042C336.91 40.4242 341.15 18.0142 355.93 6.95424C360.417 3.69926 365.619 1.56644 371.1 0.734238C371.74 0.624238 372.39 0.534239 373.05 0.454239C386.78 -1.18571 403.21 3.47424 417.23 14.7542C432.67 27.1742 443.43 45.6542 448.83 63.2242C454.23 80.7942 454.89 97.7342 454.81 114.114Z" fill="#F2F2F2"/>
<path d="M309.14 187.894H304.87C303.51 187.054 302.143 186.224 300.77 185.404C299.92 184.874 299.06 184.364 298.2 183.844C283.99 175.274 269.693 167.057 255.31 159.194C240.94 151.324 226.5 143.82 211.99 136.684C211.605 136.519 211.291 136.225 211.101 135.852C210.911 135.479 210.857 135.052 210.95 134.644C210.965 134.59 210.989 134.54 211.02 134.494C211.22 134.114 211.67 133.954 212.33 134.274C214.11 135.154 215.9 136.034 217.68 136.934C232.23 144.194 246.72 151.82 261.15 159.814C275.57 167.804 289.91 176.15 304.17 184.854C304.47 185.034 304.77 185.224 305.07 185.404C306.43 186.234 307.78 187.064 309.14 187.894Z" fill="white"/>
<path d="M364.19 187.894H361.55C360.95 187.064 360.36 186.234 359.76 185.404C345.66 165.864 331.564 146.324 317.47 126.784C294.39 94.7936 271.316 62.8036 248.25 30.8136C248.113 30.6415 248.011 30.4445 247.95 30.2336C247.75 29.5236 248.27 29.1036 248.94 29.1736C249.222 29.2123 249.493 29.3109 249.735 29.4626C249.976 29.6144 250.183 29.8158 250.34 30.0536C263.28 47.9936 276.217 65.9269 289.15 83.8536C312.11 115.684 335.067 147.51 358.02 179.334C359.48 181.354 360.94 183.384 362.4 185.404C363 186.234 363.6 187.064 364.19 187.894Z" fill="white"/>
<path d="M422.92 172.234C422.81 176.684 422.54 181.064 422.18 185.404C422.11 186.234 422.04 187.064 421.97 187.894H419.2C419.28 187.064 419.36 186.234 419.43 185.404C419.98 179.134 420.36 172.794 420.38 166.284C420.353 148.235 418.493 130.236 414.83 112.564C410.935 93.5347 405.391 74.881 398.26 56.8137C390.775 37.7582 381.776 19.3326 371.35 1.7137C371.154 1.42668 371.065 1.07962 371.1 0.733705C371.21 -0.0562953 372.26 -0.296294 373.05 0.453706C373.206 0.600851 373.34 0.769158 373.45 0.953706C374.74 3.14371 376.006 5.34037 377.25 7.5437C387.296 25.2629 395.913 43.7548 403.02 62.8437C409.789 80.9723 414.965 99.6563 418.49 118.684C421.79 136.336 423.275 154.279 422.92 172.234Z" fill="white"/>
<path d="M615.72 185.403H8.71973C6.40771 185.405 4.191 186.325 2.55618 187.96C0.921366 189.595 0.00203087 191.811 0 194.123V605.443C0.00202823 607.755 0.921366 609.972 2.55618 611.607C4.191 613.242 6.40771 614.161 8.71973 614.163H615.72C616.98 614.163 618.226 613.89 619.371 613.362C620.516 612.833 621.532 612.063 622.35 611.103C622.419 611.028 622.483 610.948 622.54 610.863C623.061 610.227 623.482 609.515 623.79 608.753C624.229 607.705 624.453 606.58 624.45 605.443V194.123C624.447 191.81 623.526 189.592 621.889 187.957C620.252 186.322 618.033 185.403 615.72 185.403ZM621.96 605.443C621.961 606.66 621.603 607.85 620.93 608.863C620.332 609.756 619.521 610.484 618.57 610.983C617.689 611.439 616.711 611.675 615.72 611.673H8.71973C7.06804 611.671 5.48457 611.014 4.31665 609.846C3.14873 608.678 2.49172 607.095 2.48972 605.443V194.123C2.49171 192.472 3.14873 190.888 4.31665 189.72C5.48457 188.552 7.06803 187.895 8.71973 187.893H615.72C617.373 187.893 618.959 188.549 620.129 189.717C621.299 190.885 621.957 192.47 621.96 194.123V605.443Z" fill="#0B3D7F"/>
<path d="M623.199 220.353H1.24268V222.845H623.199V220.353Z" fill="#0B3D7F"/>
<path d="M22.4316 211.578C26.5618 211.578 29.91 208.23 29.91 204.1C29.91 199.969 26.5618 196.621 22.4316 196.621C18.3013 196.621 14.9531 199.969 14.9531 204.1C14.9531 208.23 18.3013 211.578 22.4316 211.578Z" fill="#0B3D7F"/>
<path d="M43.9321 211.578C48.0623 211.578 51.4105 208.23 51.4105 204.1C51.4105 199.969 48.0623 196.621 43.9321 196.621C39.8018 196.621 36.4536 199.969 36.4536 204.1C36.4536 208.23 39.8018 211.578 43.9321 211.578Z" fill="#0B3D7F"/>
<path d="M65.4325 211.578C69.5628 211.578 72.911 208.23 72.911 204.1C72.911 199.969 69.5628 196.621 65.4325 196.621C61.3023 196.621 57.9541 199.969 57.9541 204.1C57.9541 208.23 61.3023 211.578 65.4325 211.578Z" fill="#0B3D7F"/>
<path d="M276.977 432.274C269.498 427.405 265.778 416.09 267.61 405.742C269.443 395.395 276.345 386.482 284.618 382.638C288.642 380.824 293.055 380.038 297.458 380.351C301.861 380.664 306.118 382.066 309.846 384.431C317.433 389.071 328.163 391.612 331.766 400.894C334.535 408.027 331.023 422.511 327.296 429.439C324.076 435.428 317.955 438.167 312.205 439.357C305.843 440.654 299.278 440.57 292.951 439.111C286.625 437.651 280.686 434.85 275.536 430.896L276.977 432.274Z" fill="#2F2E41"/>
<path d="M273.076 487.234L267.096 497.544L266.306 498.904L265.156 500.904H247.526L248.716 498.904L251.796 493.714L258.976 481.594L267.106 484.844L273.076 487.234Z" fill="#FFB8B8"/>
<path d="M246.206 500.903L242.986 498.903L242.586 498.653L262.796 461.823C263.665 460.229 264.842 458.823 266.258 457.687C267.674 456.551 269.302 455.706 271.046 455.203C273.248 454.547 275.581 454.461 277.826 454.953C279.136 455.23 280.397 455.702 281.566 456.353C282.047 456.617 282.512 456.911 282.956 457.233C284.665 458.432 286.069 460.014 287.056 461.853C288.23 464.007 288.811 466.434 288.737 468.885C288.663 471.337 287.938 473.725 286.636 475.803L278.846 488.253L272.186 498.903L270.936 500.903H246.206Z" fill="#2F2E41"/>
<path d="M298.13 445.345C311.695 445.345 322.691 434.348 322.691 420.784C322.691 407.219 311.695 396.223 298.13 396.223C284.565 396.223 273.569 407.219 273.569 420.784C273.569 434.348 284.565 445.345 298.13 445.345Z" fill="#FFB8B8"/>
<path d="M322.786 500.904H267.576L267.826 500.194C267.686 499.764 267.556 499.334 267.436 498.904C267.306 498.454 267.196 497.994 267.096 497.544C266.199 493.358 266.202 489.028 267.106 484.844C270.156 469.864 282.326 457.694 282.326 457.694C282.536 457.534 282.746 457.384 282.956 457.234C284.767 455.908 286.731 454.807 288.806 453.954C297.846 450.204 307.326 451.714 313.696 453.654C315.914 454.325 318.083 455.15 320.186 456.124C320.926 456.474 321.326 456.694 321.326 456.694L321.956 475.904L322.716 498.904L322.786 500.904Z" fill="#3A9DFA"/>
<path d="M348.326 498.904L344.106 477.444L339.846 455.804C339.669 454.91 339.225 454.091 338.574 453.454C337.922 452.817 337.093 452.392 336.196 452.234L327.276 450.694L318.976 449.264C318.176 449.12 317.351 449.197 316.591 449.488C315.831 449.779 315.166 450.272 314.666 450.914C314.042 451.692 313.7 452.657 313.696 453.654C313.696 454.27 313.822 454.879 314.066 455.444C318.396 465.544 318.476 481.534 317.376 498.904C317.326 499.564 317.286 500.234 317.236 500.904H348.726L348.326 498.904Z" fill="#2F2E41"/>
<path d="M288.806 453.953C288.623 453.226 288.261 452.555 287.754 452.002C287.246 451.449 286.61 451.03 285.9 450.784C285.191 450.538 284.432 450.472 283.691 450.593C282.95 450.713 282.251 451.016 281.656 451.473L277.826 454.953L262.146 469.233C261.657 469.672 261.274 470.216 261.026 470.823C259.256 475.053 255.806 483.403 251.796 493.713C251.146 495.393 250.476 497.123 249.786 498.903C249.546 499.563 249.286 500.233 249.026 500.903H274.866C275.076 500.233 275.286 499.563 275.496 498.903C276.646 495.273 277.766 491.713 278.846 488.253C282.006 478.203 284.856 469.073 287.056 461.853C287.666 459.853 288.223 458.007 288.726 456.313C288.961 455.548 288.989 454.733 288.806 453.953Z" fill="#2F2E41"/>
<path d="M354.126 500.904H355.796L355.566 500.344L354.956 498.904L345.546 476.574L344.106 477.444L332.546 484.434L338.476 498.904L339.296 500.904H348.726H354.126Z" fill="#FFB8B8"/>
<path d="M344.586 458.863C343.313 455.531 340.8 452.82 337.574 451.297C334.348 449.774 330.658 449.558 327.276 450.693C326.844 450.837 326.42 451.004 326.006 451.193C323.637 452.25 321.618 453.96 320.186 456.123C319.602 456.987 319.122 457.917 318.756 458.893C318.107 460.588 317.8 462.395 317.854 464.209C317.907 466.024 318.319 467.809 319.066 469.463L321.956 475.903L332.296 498.903L333.196 500.903H354.126L355.566 500.343L359.306 498.903L359.826 498.703L344.586 458.863Z" fill="#2F2E41"/>
<path d="M322.198 420.05C318.25 420.595 318.757 418.585 317.175 414.926C315.594 411.267 313.477 406.923 309.508 406.553C306.256 406.249 303.576 408.849 300.941 410.78C296.245 414.221 289.915 415.906 284.472 413.841C279.028 411.777 275.245 405.289 277.31 399.845C277.953 398.342 278.898 396.987 280.086 395.864C281.274 394.741 282.68 393.874 284.217 393.316C287.3 392.22 290.574 391.765 293.839 391.979C301.101 392.212 308.223 394.035 314.703 397.32C319.175 399.593 323.529 402.843 325.226 407.564C326.922 412.285 328.039 418.919 323.188 420.196L322.198 420.05Z" fill="#2F2E41"/>
<path d="M483.006 500.904L483.196 498.904L488.836 440.224C490.685 438.776 492.671 437.513 494.766 436.454C506.376 430.604 517.576 433.404 523.636 435.824C525.242 436.452 526.794 437.212 528.276 438.094L531.576 498.904L531.686 500.904H483.006Z" fill="#3A9DFA"/>
<path d="M509.419 424.606C522.984 424.606 533.98 413.61 533.98 400.045C533.98 386.481 522.984 375.484 509.419 375.484C495.854 375.484 484.858 386.481 484.858 400.045C484.858 413.61 495.854 424.606 509.419 424.606Z" fill="#FFB8B8"/>
<path d="M529.347 415.021C531.173 413.097 532.385 410.673 532.829 408.058C533.273 405.444 532.93 402.756 531.842 400.337C530.754 397.917 528.972 395.877 526.721 394.473C524.47 393.07 521.853 392.368 519.202 392.457C515.805 392.571 512.605 393.96 509.364 394.98C504.451 396.652 499.211 397.123 494.079 396.357C488.916 395.555 484.258 392.805 481.062 388.671C478.024 384.495 477.076 378.702 479.223 374.004C481.701 368.581 487.49 365.592 492.936 363.164C495.133 362.065 497.479 361.294 499.899 360.877C501.111 360.675 502.352 360.726 503.544 361.027C504.736 361.327 505.853 361.87 506.825 362.623C508.356 363.939 509.253 365.917 510.918 367.058C512.793 368.342 515.228 368.308 517.489 368.535C522.582 369.045 527.399 371.093 531.299 374.407C535.199 377.721 537.998 382.144 539.323 387.088C540.649 392.032 540.437 397.262 538.718 402.082C536.998 406.903 533.851 411.086 529.697 414.075L529.347 415.021Z" fill="#2F2E41"/>
<path d="M498.426 446.614L494.766 436.454L494.538 435.821C494.429 435.521 494.254 435.249 494.025 435.026C493.796 434.804 493.52 434.636 493.217 434.536C492.914 434.436 492.592 434.407 492.275 434.45C491.959 434.493 491.657 434.607 491.391 434.784L487.236 437.554C487.236 437.554 460.586 437.554 458.446 453.544C458.416 453.794 458.376 454.074 458.346 454.374C458.345 454.388 458.341 454.401 458.336 454.414C458.066 455.464 453.036 474.904 448.716 498.904C448.596 499.564 448.476 500.234 448.356 500.904H506.266C508.15 476.795 507.096 454.379 498.426 446.614Z" fill="#2F2E41"/>
<path d="M567.506 498.904C564.346 474.284 559.826 454.374 559.826 454.374C559.786 454.074 559.746 453.794 559.716 453.544C557.586 437.554 530.936 437.554 530.936 437.554L526.783 434.785C526.518 434.608 526.215 434.494 525.898 434.451C525.582 434.408 525.26 434.438 524.957 434.538C524.653 434.638 524.377 434.806 524.148 435.028C523.919 435.251 523.744 435.523 523.636 435.824L519.746 446.614C511.076 454.379 510.022 476.794 511.906 500.903L567.756 500.904C567.676 500.234 567.586 499.564 567.506 498.904Z" fill="#2F2E41"/>
<path d="M98.4259 442.844L92.4859 498.904L92.2759 500.904H76.2062C76.3961 500.254 76.5861 499.584 76.7863 498.904C81.3463 483.264 87.5563 460.434 86.8859 454.384C85.8361 444.944 93.1862 441.794 93.1862 441.794L93.6461 441.884L98.4259 442.844Z" fill="#3A9DFA"/>
<path d="M124.343 425.54C137.907 425.54 148.904 414.544 148.904 400.979C148.904 387.414 137.907 376.418 124.343 376.418C110.778 376.418 99.7816 387.414 99.7816 400.979C99.7816 414.544 110.778 425.54 124.343 425.54Z" fill="#FFB8B8"/>
<path d="M156.136 489.004C154.897 491.287 153.883 493.685 153.106 496.164C152.816 497.044 152.536 497.964 152.276 498.904C152.086 499.554 151.916 500.224 151.746 500.904H86.9658C87.0562 500.244 87.1357 499.574 87.2261 498.904C90.5361 472.754 93.2158 446.214 93.646 441.884C93.686 441.474 93.7061 441.264 93.7061 441.264C132.526 420.804 160.856 447.564 160.856 447.564C160.856 447.564 160.896 447.754 160.956 448.124C161.576 451.864 164.736 473.704 156.136 489.004Z" fill="#3A9DFA"/>
<path d="M153.106 496.164L148.786 486.904L149.836 450.184L160.956 448.124L161.346 448.054C167.094 451.395 171.542 456.583 173.966 462.774C176.126 468.174 180.236 484.414 183.706 498.904C183.866 499.574 184.026 500.244 184.186 500.904H155.316L154.386 498.904L153.106 496.164Z" fill="#3A9DFA"/>
<path d="M192.616 335.903H50.5963C47.5501 335.907 44.6297 337.119 42.4756 339.273C40.3216 341.427 39.1098 344.347 39.1061 347.393V489.413C39.1098 492.46 40.3216 495.38 42.4756 497.534C44.6297 499.688 47.5501 500.9 50.5963 500.903H192.616C195.663 500.901 198.584 499.69 200.739 497.536C202.893 495.381 204.104 492.46 204.106 489.413V347.393C204.104 344.347 202.893 341.425 200.739 339.271C198.584 337.117 195.663 335.905 192.616 335.903ZM202.106 489.413C202.104 491.93 201.104 494.342 199.324 496.121C197.545 497.901 195.133 498.901 192.616 498.903H50.5963C48.0806 498.9 45.6689 497.899 43.89 496.12C42.111 494.341 41.1099 491.929 41.1061 489.413V347.393C41.1099 344.878 42.111 342.466 43.89 340.687C45.6689 338.908 48.0806 337.907 50.5963 337.903H192.616C195.133 337.905 197.545 338.906 199.324 340.685C201.104 342.465 202.104 344.877 202.106 347.393V489.413ZM92.486 498.903L92.2759 500.903H151.746C151.916 500.223 152.086 499.553 152.276 498.903H92.486Z" fill="#3F3D56"/>
<path d="M383.226 335.903H241.206C238.16 335.907 235.239 337.119 233.085 339.273C230.931 341.427 229.72 344.347 229.716 347.393V489.413C229.72 492.46 230.931 495.38 233.085 497.534C235.239 499.688 238.16 500.9 241.206 500.903H383.226C386.273 500.901 389.194 499.69 391.349 497.536C393.503 495.381 394.714 492.46 394.716 489.413V347.393C394.714 344.347 393.503 341.425 391.349 339.271C389.194 337.117 386.273 335.905 383.226 335.903ZM392.716 489.413C392.714 491.93 391.713 494.342 389.934 496.121C388.155 497.901 385.742 498.901 383.226 498.903H241.206C238.69 498.9 236.279 497.899 234.5 496.12C232.721 494.341 231.72 491.929 231.716 489.413V347.393C231.72 344.878 232.721 342.466 234.5 340.687C236.279 338.908 238.69 337.907 241.206 337.903H383.226C385.742 337.905 388.155 338.906 389.934 340.685C391.713 342.465 392.714 344.877 392.716 347.393V489.413ZM267.436 498.903C267.556 499.333 267.686 499.763 267.826 500.193L267.576 500.903H317.236C317.286 500.233 317.326 499.563 317.376 498.903H267.436Z" fill="#3F3D56"/>
<path d="M573.846 335.903H431.826C428.78 335.905 425.858 337.116 423.704 339.271C421.549 341.425 420.338 344.347 420.336 347.393V489.413C420.338 492.46 421.549 495.382 423.704 497.536C425.858 499.69 428.78 500.901 431.826 500.903H573.846C576.892 500.9 579.813 499.688 581.967 497.534C584.121 495.38 585.332 492.459 585.336 489.413V347.393C585.332 344.347 584.121 341.427 581.967 339.273C579.813 337.119 576.892 335.907 573.846 335.903ZM583.336 489.413C583.332 491.929 582.331 494.341 580.552 496.12C578.774 497.898 576.362 498.9 573.846 498.903H431.826C429.31 498.901 426.897 497.901 425.118 496.122C423.339 494.342 422.338 491.93 422.336 489.413V347.393C422.338 344.877 423.339 342.464 425.118 340.685C426.897 338.906 429.31 337.905 431.826 337.903H573.846C576.362 337.907 578.774 338.908 580.552 340.687C582.331 342.466 583.332 344.878 583.336 347.393V489.413ZM506.416 498.903C506.366 499.563 506.316 500.233 506.266 500.903H549.356C549.436 500.243 549.526 499.573 549.606 498.903H506.416Z" fill="#3F3D56"/>
<path d="M477.221 558.903H147.221C145.099 558.903 143.064 558.06 141.564 556.56C140.064 555.06 139.221 553.025 139.221 550.903C139.221 548.782 140.064 546.747 141.564 545.246C143.064 543.746 145.099 542.903 147.221 542.903H477.221C479.343 542.903 481.378 543.746 482.878 545.246C484.378 546.747 485.221 548.782 485.221 550.903C485.221 553.025 484.378 555.06 482.878 556.56C481.378 558.06 479.343 558.903 477.221 558.903Z" fill="#CCCCCC"/>
<path d="M384.721 293.903H239.721C237.599 293.903 235.564 293.06 234.064 291.56C232.564 290.06 231.721 288.025 231.721 285.903C231.721 283.782 232.564 281.747 234.064 280.246C235.564 278.746 237.599 277.903 239.721 277.903H384.721C386.843 277.903 388.878 278.746 390.378 280.246C391.878 281.747 392.721 283.782 392.721 285.903C392.721 288.025 391.878 290.06 390.378 291.56C388.878 293.06 386.843 293.903 384.721 293.903Z" fill="url(#paint0_linear_733_2)"/>
<path d="M136.091 422.377C136.922 423.197 138.022 423.69 139.188 423.765C140.353 423.839 141.507 423.491 142.436 422.784C148.225 418.493 153.307 413.152 156.314 406.637C159.76 399.172 160.145 390.012 155.99 382.917C152.478 376.919 146.275 373.049 140.094 369.871C137.694 368.516 135.109 367.52 132.42 366.913C129.703 366.314 126.859 366.772 124.469 368.196C123.299 368.929 122.378 369.998 121.824 371.263C121.271 372.528 121.112 373.93 121.368 375.287C118.399 371.899 114.596 369.346 110.336 367.881C107.654 366.832 104.717 366.619 101.911 367.271C97.9883 368.383 95.1246 371.868 93.5583 375.633C92.2916 378.496 91.8542 381.658 92.2959 384.758C92.5283 386.3 93.0819 387.777 93.9209 389.092C94.7599 390.407 95.8656 391.531 97.1665 392.392C100.41 394.399 104.547 394.254 108.272 393.434C111.996 392.615 115.601 391.189 119.398 390.828C123.195 390.468 127.422 391.414 129.733 394.448C131.36 396.585 131.778 399.377 132.143 402.038L134.043 415.877C134.198 417.879 134.71 419.837 135.553 421.659C135.699 421.922 135.88 422.163 136.091 422.377Z" fill="#2F2E41"/>
</g>
<defs>
<linearGradient id="paint0_linear_733_2" x1="408.438" y1="302.968" x2="392.235" y2="230.147" gradientUnits="userSpaceOnUse">
<stop offset="0.222012" stop-color="#3A9DFA"/>
<stop offset="1" stop-color="#4F7DF8"/>
</linearGradient>
<clipPath id="clip0_733_2">
<rect width="624.45" height="614.164" fill="white"/>
</clipPath>
</defs>
</svg>
